<svg xmlns="http://www.w3.org/2000/svg" width="810" viewBox="0 0 810 810" height="810" version="1.0"><defs><clipPath id="a"><path d="M 19 263.554688 L 791 263.554688 L 791 470 L 19 470 Z M 19 263.554688"/></clipPath><clipPath id="b"><path d="M 660 503 L 683 503 L 683 544.804688 L 660 544.804688 Z M 660 503"/></clipPath><clipPath id="c"><path d="M 677 297 L 797.796875 297 L 797.796875 421 L 677 421 Z M 677 297"/></clipPath></defs><g clip-path="url(#a)"><path fill="#FFF" d="M 342.882812 468.695312 C 349.988281 402.972656 357.082031 337.378906 364.15625 271.917969 C 354.832031 271.917969 345.765625 271.78125 336.6875 271.917969 C 320.984375 272.214844 305.28125 272.742188 289.578125 273.074219 C 281.417969 273.253906 275.253906 276.351562 271.316406 283.851562 C 266.839844 292.417969 261.945312 300.722656 257.203125 309.140625 C 256.777344 309.914062 256.425781 310.691406 255.914062 311.878906 L 325.390625 311.878906 L 325.390625 312.4375 C 321.503906 312.675781 317.566406 312.925781 313.648438 313.160156 C 300.8125 313.933594 288.007812 314.648438 275.15625 315.441406 C 262.300781 316.230469 249.261719 317.054688 236.300781 317.914062 C 229.050781 318.394531 221.792969 318.894531 214.542969 319.542969 C 210.660156 319.902344 208.007812 321.871094 206.363281 325.691406 C 198.699219 343.488281 190.820312 361.179688 183.050781 378.925781 C 181.644531 382.128906 180.394531 385.386719 178.917969 389.011719 L 278.820312 389.011719 L 278.820312 389.5625 C 269.257812 390.097656 259.699219 390.648438 250.140625 391.152344 C 229.574219 392.25 209.011719 393.324219 188.449219 394.378906 C 173.914062 395.15625 159.375 395.722656 144.835938 396.492188 C 123.480469 397.632812 102.097656 398.382812 80.789062 400.246094 C 69.445312 401.238281 61.9375 409.007812 57.59375 419.109375 C 51.066406 434.308594 45.164062 449.765625 39.0625 465.160156 C 37.996094 467.851562 36.808594 469.324219 33.5 469.039062 C 28.875 468.640625 24.175781 468.9375 19.0625 468.9375 C 22.082031 461.386719 24.960938 454.195312 27.851562 446.964844 C 32.023438 436.558594 36.53125 426.269531 40.28125 415.726562 C 45.613281 400.828125 56.601562 393.285156 71.511719 390.617188 C 77.121094 389.664062 82.769531 389.195312 88.460938 389.214844 C 113.15625 389.089844 137.855469 389.214844 162.558594 389.136719 C 163.167969 389.058594 163.730469 388.855469 164.246094 388.519531 C 164.757812 388.183594 165.175781 387.753906 165.488281 387.226562 C 175.480469 366.277344 185.335938 345.195312 195.28125 324.191406 C 199.128906 316.070312 205.3125 311.660156 214.667969 311.941406 C 223.085938 312.1875 231.523438 311.941406 239.945312 312.042969 C 242.121094 312.042969 243.425781 311.53125 244.554688 309.535156 C 249.214844 301.234375 254.328125 293.164062 258.859375 284.777344 C 265.621094 272.269531 276.171875 266.15625 290.097656 265.757812 C 318.902344 264.90625 347.699219 264.269531 376.480469 263.554688 C 377.367188 263.554688 378.246094 263.671875 379.292969 263.742188 C 372.488281 327.273438 365.710938 390.601562 358.882812 454.34375 L 790.773438 454.34375 C 790.238281 459.339844 789.757812 463.902344 789.222656 468.695312 Z M 342.882812 468.695312"/></g><path fill="#FFF" d="M 170.976562 468.78125 C 167.539062 468.78125 164.355469 468.96875 161.214844 468.664062 C 160.265625 468.574219 159.101562 467.246094 158.636719 466.214844 C 152.417969 452.496094 142.238281 443.449219 127.296875 440.554688 C 106.621094 436.542969 86.175781 445.171875 77.308594 465.964844 C 76.285156 468.378906 75.054688 469.207031 72.53125 468.96875 C 70.003906 468.726562 67.308594 468.914062 64.652344 468.914062 C 68.535156 450.835938 88.375 430.164062 115.445312 429.117188 C 145.386719 427.960938 166.367188 449.773438 170.976562 468.78125 Z M 170.976562 468.78125"/><path fill="#FFF" d="M 18.789062 530.878906 L 15.355469 540.917969 L 9.402344 540.917969 C 9.9375 539.503906 22.402344 505.179688 23 503.597656 L 31.472656 503.597656 L 29.410156 540.917969 L 23.707031 540.917969 L 24.382812 530.878906 Z M 24.734375 525.640625 C 25.183594 519.953125 25.652344 512.90625 25.984375 508.789062 L 25.773438 508.789062 C 24.921875 512.09375 22.480469 519.835938 20.59375 525.640625 Z M 24.734375 525.640625"/><path fill="#FFF" d="M 50.585938 503.597656 L 44.515625 532.105469 C 43.980469 534.664062 44.515625 536.285156 46.753906 536.285156 C 49.210938 536.285156 49.863281 534.46875 50.390625 532.097656 L 56.460938 503.597656 L 62.171875 503.597656 L 56.179688 531.582031 C 54.898438 537.480469 53.242188 541.367188 46.171875 541.367188 C 40.105469 541.367188 37.5625 538.125 38.9375 531.621094 L 44.90625 503.597656 Z M 50.585938 503.597656"/><path fill="#FFF" d="M 74.378906 508.828125 L 68.644531 508.828125 L 69.773438 503.597656 L 86.929688 503.597656 L 85.800781 508.828125 L 80.027344 508.828125 L 73.214844 540.917969 L 67.566406 540.917969 Z M 74.378906 508.828125"/><path fill="#FFF" d="M 109.96875 513.800781 L 106.261719 531.296875 C 104.925781 537.660156 102.921875 541.46875 96.035156 541.46875 C 89.367188 541.46875 87.488281 537.148438 88.792969 530.714844 L 92.601562 512.347656 C 93.921875 505.972656 97.265625 503.039062 102.484375 503.039062 C 108.539062 503.054688 111.429688 507.019531 109.96875 513.800781 Z M 98.414062 512.394531 L 94.359375 531.691406 C 93.765625 534.371094 93.992188 536.628906 96.6875 536.628906 C 98.878906 536.628906 99.796875 534.789062 100.441406 531.886719 L 104.460938 512.621094 C 105.035156 509.882812 104.527344 507.964844 102.011719 507.964844 C 100.140625 507.964844 99.019531 509.410156 98.414062 512.394531 Z M 98.414062 512.394531"/><path fill="#FFF" d="M 123.21875 508.828125 L 117.484375 508.828125 L 118.617188 503.597656 L 135.773438 503.597656 L 134.640625 508.828125 L 128.875 508.828125 L 122.074219 540.917969 L 116.402344 540.917969 Z M 123.21875 508.828125"/><path fill="#FFF" d="M 145 524.3125 L 141.5 540.917969 L 135.851562 540.917969 L 143.792969 503.597656 L 151.035156 503.597656 C 156.941406 503.597656 159.707031 506.746094 158.417969 513.09375 L 158.015625 515.074219 C 156.996094 520.09375 154.90625 521.527344 152.777344 522.117188 C 154.277344 523.148438 155.574219 524.863281 154.292969 530.652344 C 153.46875 534.035156 152.863281 537.457031 152.480469 540.917969 L 146.871094 540.917969 C 146.933594 538.652344 147.964844 533.933594 148.90625 529.511719 C 149.722656 525.632812 149.296875 524.3125 146.4375 524.3125 Z M 145.984375 519.566406 L 147.21875 519.566406 C 150.46875 519.566406 151.578125 518.625 152.316406 514.714844 L 152.675781 512.777344 C 153.203125 509.945312 152.839844 508.34375 149.964844 508.34375 L 148.410156 508.34375 Z M 145.984375 519.566406"/><path fill="#FFF" d="M 169.894531 530.878906 L 166.46875 540.917969 L 160.515625 540.917969 C 161.050781 539.503906 173.507812 505.179688 174.113281 503.597656 L 182.585938 503.597656 L 180.523438 540.917969 L 174.820312 540.917969 L 175.496094 530.878906 Z M 175.847656 525.640625 C 176.289062 519.953125 176.765625 512.90625 177.097656 508.789062 L 176.886719 508.789062 C 176.035156 512.09375 173.59375 519.835938 171.707031 525.640625 Z M 175.847656 525.640625"/><path fill="#FFF" d="M 188.683594 540.917969 L 196.625 503.597656 L 203.292969 503.597656 C 203.601562 514.871094 203.96875 527.789062 203.914062 529.542969 L 203.976562 529.542969 C 204.753906 524.664062 205.703125 519.457031 206.992188 513.289062 L 209.042969 503.597656 L 214.414062 503.597656 L 206.464844 540.917969 L 199.996094 540.917969 C 199.75 531.40625 199.28125 515.980469 199.320312 514.421875 L 199.265625 514.421875 C 198.492188 519 197.644531 524.003906 196.238281 530.714844 L 194.09375 540.917969 Z M 188.683594 540.917969"/><path fill="#FFF" d="M 223.316406 530.949219 L 223.152344 531.949219 C 222.648438 534.949219 223.09375 536.773438 225.484375 536.773438 C 227.503906 536.773438 228.546875 535.222656 229.121094 532.289062 C 229.765625 528.9375 229.332031 526.859375 225.820312 522.917969 C 221.824219 518.425781 220.730469 516.035156 221.691406 510.851562 C 222.65625 505.667969 225.539062 503.054688 230.28125 503.054688 C 237.644531 503.054688 238.414062 508.414062 237.660156 512.832031 L 237.539062 513.558594 L 231.847656 513.558594 L 231.972656 512.824219 C 232.441406 510.074219 232.433594 507.792969 230.15625 507.792969 C 228.476562 507.792969 227.605469 508.917969 227.242188 511.175781 C 226.804688 513.808594 227.242188 515.4375 229.890625 518.480469 C 234.894531 524.175781 235.890625 527.433594 234.777344 532.808594 C 233.589844 538.441406 230.753906 541.46875 224.964844 541.46875 C 218.40625 541.46875 216.355469 537.417969 217.519531 531.539062 L 217.644531 530.949219 Z M 223.316406 530.949219"/><path fill="#FFF" d="M 249.832031 503.597656 L 257.027344 503.597656 C 263.171875 503.597656 265.804688 507.28125 264.5625 513.542969 L 264.058594 516.105469 C 262.890625 522.0625 260.398438 525.074219 253.140625 525.074219 L 250.894531 525.074219 L 247.539062 540.917969 L 241.890625 540.917969 Z M 251.929688 520.378906 L 253.824219 520.378906 C 256.933594 520.378906 257.75 518.789062 258.402344 515.792969 L 258.859375 513.628906 C 259.496094 510.6875 259.519531 508.335938 256.328125 508.335938 L 254.453125 508.335938 Z M 251.929688 520.378906"/><path fill="#FFF" d="M 290.90625 513.800781 L 287.191406 531.296875 C 285.855469 537.660156 283.855469 541.46875 276.964844 541.46875 C 270.296875 541.46875 268.417969 537.148438 269.722656 530.714844 L 273.53125 512.347656 C 274.851562 505.972656 278.191406 503.039062 283.421875 503.039062 C 289.46875 503.054688 292.359375 507.019531 290.90625 513.800781 Z M 279.34375 512.394531 L 275.285156 531.691406 C 274.703125 534.371094 274.921875 536.628906 277.578125 536.628906 C 279.769531 536.628906 280.6875 534.789062 281.332031 531.886719 L 285.386719 512.621094 C 285.972656 509.882812 285.457031 507.964844 282.941406 507.964844 C 281.066406 507.964844 279.949219 509.410156 279.34375 512.394531 Z M 279.34375 512.394531"/><path fill="#FFF" d="M 304.105469 524.3125 L 300.578125 540.917969 L 294.921875 540.917969 L 302.871094 503.597656 L 310.121094 503.597656 C 316.027344 503.597656 318.792969 506.746094 317.503906 513.09375 L 317.101562 515.074219 C 316.082031 520.09375 314.03125 521.527344 311.863281 522.117188 C 313.363281 523.148438 314.660156 524.863281 313.378906 530.652344 C 312.554688 534.035156 311.949219 537.457031 311.566406 540.917969 L 305.957031 540.917969 C 306.019531 538.652344 307.058594 533.933594 307.992188 529.511719 C 308.808594 525.632812 308.382812 524.3125 305.523438 524.3125 Z M 305.09375 519.566406 L 306.328125 519.566406 C 309.578125 519.566406 310.695312 518.625 311.425781 514.714844 L 311.785156 512.777344 C 312.3125 509.945312 311.957031 508.34375 309.082031 508.34375 L 307.488281 508.34375 Z M 305.09375 519.566406"/><path fill="#FFF" d="M 330.667969 508.828125 L 324.933594 508.828125 L 326.066406 503.597656 L 343.222656 503.597656 L 342.089844 508.828125 L 336.324219 508.828125 L 329.546875 540.917969 L 323.890625 540.917969 Z M 330.667969 508.828125"/><path fill="#FFF" d="M 360.527344 523.675781 L 352.554688 523.675781 L 350.046875 535.734375 L 359.699219 535.734375 L 357.855469 540.917969 L 343.261719 540.917969 L 351.203125 503.597656 L 365.292969 503.597656 L 364.164062 508.78125 L 355.726562 508.78125 L 353.683594 518.496094 L 361.664062 518.496094 Z M 360.527344 523.675781"/><path fill="#FFF" d="M 373.367188 530.949219 L 373.203125 531.949219 C 372.699219 534.949219 373.132812 536.773438 375.535156 536.773438 C 377.5625 536.773438 378.59375 535.222656 379.179688 532.289062 C 379.824219 528.9375 379.386719 526.859375 375.875 522.917969 C 371.882812 518.425781 370.785156 516.035156 371.742188 510.851562 C 372.699219 505.667969 375.628906 503.054688 380.328125 503.054688 C 387.695312 503.054688 388.472656 508.414062 387.71875 512.832031 L 387.59375 513.558594 L 381.90625 513.558594 L 382.03125 512.824219 C 382.496094 510.074219 382.480469 507.792969 380.210938 507.792969 C 378.535156 507.792969 377.664062 508.917969 377.289062 511.175781 C 376.863281 513.808594 377.289062 515.4375 379.949219 518.480469 C 384.953125 524.175781 385.9375 527.433594 384.828125 532.808594 C 383.644531 538.441406 380.808594 541.46875 375.019531 541.46875 C 368.460938 541.46875 366.410156 537.417969 367.578125 531.539062 L 367.695312 530.949219 Z M 373.367188 530.949219"/><path fill="#FFF" d="M 411.960938 503.597656 L 418.691406 503.597656 C 427 503.597656 428.242188 508.609375 426.578125 516.359375 L 423.570312 530.375 C 422.140625 537.007812 420.316406 540.917969 412.523438 540.917969 L 404.019531 540.917969 Z M 410.601562 536.230469 L 412.4375 536.230469 C 415.792969 536.230469 417.019531 534.4375 417.875 530.328125 L 421.238281 514.476562 C 422.085938 510.59375 421.855469 508.335938 418.3125 508.335938 L 416.578125 508.335938 Z M 410.601562 536.230469"/><path fill="#FFF" d="M 448.359375 523.675781 L 440.394531 523.675781 L 437.882812 535.734375 L 447.535156 535.734375 L 445.695312 540.917969 L 431.101562 540.917969 L 439.042969 503.597656 L 453.097656 503.597656 L 451.964844 508.78125 L 443.566406 508.78125 L 441.519531 518.496094 L 449.5 518.496094 Z M 448.359375 523.675781"/><path fill="#FFF" d="M 485.136719 530.304688 L 484.972656 530.980469 C 483.707031 536.054688 482.589844 541.46875 474.972656 541.46875 C 468.296875 541.46875 466.859375 537.070312 468.199219 530.863281 L 471.847656 513.792969 C 473.308594 507.082031 475.191406 503.03125 481.476562 503.03125 C 489.535156 503.03125 489.527344 508.972656 488.410156 513.472656 L 488.285156 513.976562 L 482.628906 513.976562 L 482.9375 512.535156 C 483.582031 509.523438 483.296875 507.917969 481.199219 507.917969 C 479.332031 507.917969 478.640625 509.429688 477.941406 512.714844 L 473.949219 531.507812 C 473.300781 534.609375 473.347656 536.605469 475.585938 536.605469 C 477.507812 536.605469 478.238281 535.011719 479.007812 531.660156 L 479.332031 530.28125 Z M 485.136719 530.304688"/><path fill="#FFF" d="M 499.980469 530.878906 L 496.550781 540.917969 L 490.601562 540.917969 C 491.128906 539.503906 503.59375 505.179688 504.199219 503.597656 L 512.667969 503.597656 L 510.601562 540.917969 L 504.898438 540.917969 L 505.566406 530.878906 Z M 505.929688 525.640625 C 506.375 519.953125 506.847656 512.90625 507.183594 508.789062 L 506.972656 508.789062 C 506.117188 512.09375 503.675781 519.835938 501.789062 525.640625 Z M 505.929688 525.640625"/><path fill="#FFF" d="M 527.945312 524.3125 L 524.417969 540.917969 L 518.769531 540.917969 L 526.710938 503.597656 L 533.953125 503.597656 C 539.847656 503.597656 542.625 506.746094 541.332031 513.09375 L 540.929688 515.074219 C 539.910156 520.09375 537.820312 521.527344 535.691406 522.117188 C 537.191406 523.148438 538.488281 524.863281 537.246094 530.652344 C 536.417969 534.035156 535.816406 537.457031 535.4375 540.917969 L 529.824219 540.917969 C 529.886719 538.652344 530.921875 533.933594 531.863281 529.511719 C 532.675781 525.632812 532.25 524.3125 529.382812 524.3125 Z M 528.941406 519.605469 L 530.167969 519.605469 C 533.414062 519.605469 534.535156 518.664062 535.273438 514.753906 L 535.621094 512.816406 C 536.160156 509.984375 535.792969 508.382812 532.917969 508.382812 L 531.363281 508.382812 Z M 528.941406 519.605469"/><path fill="#FFF" d="M 561.460938 540.917969 L 556.875 540.917969 C 556.917969 539.976562 557.054688 539.050781 557.285156 538.140625 C 556.996094 538.652344 556.648438 539.117188 556.234375 539.535156 C 555.820312 539.953125 555.355469 540.308594 554.847656 540.601562 C 554.335938 540.894531 553.796875 541.113281 553.226562 541.261719 C 552.65625 541.40625 552.078125 541.476562 551.488281 541.46875 C 545.785156 541.46875 545.054688 536.65625 546.351562 530.496094 L 550.027344 513.28125 C 551.34375 507.074219 553.402344 502.953125 560.015625 503.054688 C 567.785156 503.15625 568.0625 509.089844 567.257812 513 L 567.085938 513.832031 L 561.34375 513.832031 L 561.550781 512.582031 C 561.996094 510.011719 561.933594 507.925781 559.53125 507.925781 C 557.769531 507.925781 556.765625 508.933594 555.925781 512.945312 L 552.113281 531.085938 C 551.390625 534.4375 551.496094 536.605469 553.882812 536.605469 C 556.269531 536.605469 557.285156 534.445312 558.265625 529.824219 L 559.222656 525.167969 L 555.894531 525.167969 L 556.929688 520.230469 L 565.902344 520.230469 Z M 561.460938 540.917969"/><path fill="#FFF" d="M 579.425781 530.878906 L 575.996094 540.917969 L 570.039062 540.917969 C 570.574219 539.503906 583.039062 505.179688 583.644531 503.597656 L 592.113281 503.597656 L 590.046875 540.917969 L 584.351562 540.917969 L 585.019531 530.878906 Z M 585.371094 525.640625 C 585.820312 519.953125 586.285156 512.90625 586.628906 508.789062 L 586.417969 508.789062 C 585.5625 512.09375 583.117188 519.835938 581.226562 525.640625 Z M 585.371094 525.640625"/><path fill="#FFF" d="M 627.671875 523.675781 L 619.699219 523.675781 L 617.199219 535.734375 L 626.839844 535.734375 L 625 540.917969 L 610.40625 540.917969 L 618.347656 503.597656 L 632.425781 503.597656 L 631.300781 508.78125 L 622.871094 508.78125 L 620.824219 518.496094 L 628.804688 518.496094 Z M 627.671875 523.675781"/><path fill="#FFF" d="M 640.507812 530.949219 L 640.34375 531.949219 C 639.839844 534.949219 640.277344 536.773438 642.675781 536.773438 C 644.695312 536.773438 645.738281 535.222656 646.3125 532.289062 C 646.957031 528.9375 646.523438 526.859375 643.011719 522.917969 C 639.015625 518.425781 637.921875 516.035156 638.878906 510.851562 C 639.832031 505.667969 642.761719 503.054688 647.464844 503.054688 C 654.835938 503.054688 655.605469 508.414062 654.851562 512.832031 L 654.730469 513.558594 L 649.039062 513.558594 L 649.164062 512.824219 C 649.632812 510.074219 649.617188 507.792969 647.347656 507.792969 C 645.667969 507.792969 644.796875 508.917969 644.425781 511.175781 C 643.996094 513.808594 644.425781 515.4375 647.082031 518.480469 C 652.085938 524.175781 653.082031 527.433594 651.960938 532.808594 C 650.78125 538.441406 647.945312 541.46875 642.15625 541.46875 C 635.597656 541.46875 633.546875 537.417969 634.710938 531.539062 L 634.828125 530.949219 Z M 640.507812 530.949219"/><g clip-path="url(#b)"><path fill="#FFF" d="M 681.738281 513.800781 L 678.03125 531.296875 C 676.695312 537.660156 674.691406 541.46875 667.808594 541.46875 C 661.140625 541.46875 659.257812 537.148438 660.566406 530.714844 L 664.371094 512.347656 C 665.691406 505.972656 669.035156 503.039062 674.257812 503.039062 C 680.308594 503.054688 683.199219 507.019531 681.738281 513.800781 Z M 670.175781 512.394531 L 666.128906 531.691406 C 665.546875 534.371094 665.761719 536.628906 668.460938 536.628906 C 670.652344 536.628906 671.566406 534.789062 672.210938 531.886719 L 676.230469 512.621094 C 676.804688 509.882812 676.292969 507.964844 673.78125 507.964844 C 671.910156 507.964844 670.789062 509.410156 670.175781 512.394531 Z M 675.003906 537.828125 L 679.382812 540.933594 L 675.949219 544.8125 L 670.511719 540.871094 Z M 675.003906 537.828125"/></g><path fill="#FFF" d="M 699.144531 503.597656 L 693.078125 532.105469 C 692.546875 534.664062 693.078125 536.285156 695.320312 536.285156 C 697.777344 536.285156 698.429688 534.46875 698.949219 532.097656 L 705.019531 503.597656 L 710.730469 503.597656 L 704.761719 531.582031 C 703.488281 537.480469 701.824219 541.367188 694.753906 541.367188 C 688.695312 541.367188 686.152344 538.125 687.519531 531.621094 L 693.496094 503.597656 Z M 699.144531 503.597656"/><path fill="#FFF" d="M 726.496094 503.597656 L 718.546875 540.917969 L 712.898438 540.917969 L 720.839844 503.597656 Z M 726.496094 503.597656"/><path fill="#FFF" d="M 732.96875 540.917969 L 734.601562 503.597656 L 740.359375 503.597656 L 739.117188 518.59375 C 738.6875 523.613281 738.035156 531.085938 737.609375 534.804688 L 737.710938 534.804688 C 738.890625 530.785156 741.261719 523.941406 743.023438 518.671875 L 748.121094 503.597656 L 754.136719 503.597656 L 739.988281 540.917969 Z M 732.96875 540.917969"/><path fill="#FFF" d="M 771.566406 523.675781 L 763.59375 523.675781 L 761.09375 535.734375 L 770.734375 535.734375 L 768.894531 540.917969 L 754.300781 540.917969 L 762.242188 503.597656 L 776.351562 503.597656 L 775.226562 508.78125 L 766.765625 508.78125 L 764.699219 518.496094 L 772.699219 518.496094 Z M 771.566406 523.675781"/><path fill="#FFF" d="M 785.679688 503.597656 L 791.335938 503.597656 L 784.472656 535.734375 L 793.703125 535.734375 L 792.152344 540.917969 L 777.699219 540.917969 Z M 785.679688 503.597656"/><path fill="#FFF" d="M 428 394.878906 L 415.351562 420.195312 L 378.449219 420.195312 C 391.960938 395.660156 426.625 327.933594 443.671875 297.46875 L 492.238281 297.46875 L 501.976562 420.195312 L 466.113281 420.195312 L 464.5625 394.878906 Z M 464.777344 369.273438 C 463.839844 350.820312 462.90625 332.027344 463.222656 319.421875 L 462.449219 319.421875 C 456.574219 333.621094 448.398438 351.230469 439.320312 369.273438 Z M 464.777344 369.273438"/><path fill="#FFF" d="M 650.71875 382.492188 C 643.289062 404.714844 625.550781 422.492188 588.269531 422.492188 C 552.117188 422.492188 536.609375 402.433594 536.609375 373.277344 C 536.609375 340.945312 556.316406 295.289062 608.433594 295.289062 C 647.433594 295.289062 659.242188 317.789062 658.265625 337.667969 L 623.039062 337.667969 C 622.871094 329.042969 621.066406 319.34375 605.945312 319.34375 C 583.738281 319.34375 574.148438 352.667969 574.148438 374.019531 C 574.148438 389.664062 579.648438 398.421875 592.316406 398.421875 C 605.527344 398.421875 610.609375 391.523438 614.632812 382.492188 Z M 650.71875 382.492188"/><g clip-path="url(#c)"><path fill="#FFF" d="M 778.179688 369.582031 L 724.214844 369.582031 L 718.183594 395.597656 L 781.792969 395.597656 L 772.585938 420.195312 L 677.722656 420.195312 L 706.277344 297.46875 L 797.195312 297.46875 L 791.398438 322.246094 L 735.269531 322.246094 L 729.949219 344.816406 L 783.914062 344.816406 Z M 778.179688 369.582031"/></g></svg>